<mxfile host="app.diagrams.net" modified="2025-01-24T20:46:19.522Z" agent="Mozilla/5.0 (Windows NT 10.0; Win64; x64) AppleWebKit/537.36 (KHTML, like Gecko) Chrome/131.0.0.0 Safari/537.36" etag="VN9sUmzAMtAntPrKul8p" version="24.0.1" type="device">
  <diagram name="Σελίδα-1" id="aHvX3-zPqHc6pYmu1hCN">
    <mxGraphModel dx="1235" dy="624" grid="0" gridSize="10" guides="1" tooltips="1" connect="1" arrows="1" fold="1" page="1" pageScale="1" pageWidth="827" pageHeight="1169" math="0" shadow="0">
      <root>
        <mxCell id="0" />
        <mxCell id="1" parent="0" />
        <mxCell id="VpwlSY-QDBKptcCKA4tu-70" value="" style="rounded=0;whiteSpace=wrap;html=1;" vertex="1" parent="1">
          <mxGeometry x="171" y="1043" width="608" height="384" as="geometry" />
        </mxCell>
        <mxCell id="VpwlSY-QDBKptcCKA4tu-33" value="" style="rounded=0;whiteSpace=wrap;html=1;" vertex="1" parent="1">
          <mxGeometry x="171" y="590" width="608" height="384" as="geometry" />
        </mxCell>
        <mxCell id="VpwlSY-QDBKptcCKA4tu-5" value="" style="rounded=0;whiteSpace=wrap;html=1;" vertex="1" parent="1">
          <mxGeometry x="200" y="51" width="608" height="384" as="geometry" />
        </mxCell>
        <mxCell id="VpwlSY-QDBKptcCKA4tu-8" value="" style="rounded=0;whiteSpace=wrap;html=1;" vertex="1" parent="1">
          <mxGeometry x="420" y="100" width="352" height="300" as="geometry" />
        </mxCell>
        <mxCell id="VpwlSY-QDBKptcCKA4tu-7" value="web" style="text;html=1;align=center;verticalAlign=middle;whiteSpace=wrap;rounded=0;" vertex="1" parent="1">
          <mxGeometry x="579" y="21" width="60" height="30" as="geometry" />
        </mxCell>
        <mxCell id="VpwlSY-QDBKptcCKA4tu-9" value="map" style="text;html=1;align=center;verticalAlign=middle;whiteSpace=wrap;rounded=0;" vertex="1" parent="1">
          <mxGeometry x="566" y="100" width="60" height="30" as="geometry" />
        </mxCell>
        <mxCell id="VpwlSY-QDBKptcCKA4tu-13" value="" style="endArrow=none;html=1;rounded=0;" edge="1" parent="1">
          <mxGeometry width="50" height="50" relative="1" as="geometry">
            <mxPoint x="752" y="290" as="sourcePoint" />
            <mxPoint x="759" y="290" as="targetPoint" />
          </mxGeometry>
        </mxCell>
        <mxCell id="VpwlSY-QDBKptcCKA4tu-17" value="" style="group" vertex="1" connectable="0" parent="1">
          <mxGeometry x="750" y="284" width="12" height="32" as="geometry" />
        </mxCell>
        <mxCell id="VpwlSY-QDBKptcCKA4tu-11" value="" style="rounded=0;whiteSpace=wrap;html=1;" vertex="1" parent="VpwlSY-QDBKptcCKA4tu-17">
          <mxGeometry y="20" width="12" height="12" as="geometry" />
        </mxCell>
        <mxCell id="VpwlSY-QDBKptcCKA4tu-12" value="" style="endArrow=none;html=1;rounded=0;" edge="1" parent="VpwlSY-QDBKptcCKA4tu-17">
          <mxGeometry width="50" height="50" relative="1" as="geometry">
            <mxPoint x="2" y="26" as="sourcePoint" />
            <mxPoint x="9" y="26" as="targetPoint" />
          </mxGeometry>
        </mxCell>
        <mxCell id="VpwlSY-QDBKptcCKA4tu-14" value="" style="rounded=0;whiteSpace=wrap;html=1;" vertex="1" parent="VpwlSY-QDBKptcCKA4tu-17">
          <mxGeometry width="12" height="12" as="geometry" />
        </mxCell>
        <mxCell id="VpwlSY-QDBKptcCKA4tu-15" value="" style="endArrow=none;html=1;rounded=0;" edge="1" parent="VpwlSY-QDBKptcCKA4tu-17">
          <mxGeometry width="50" height="50" relative="1" as="geometry">
            <mxPoint x="2.5" y="5.920000000000016" as="sourcePoint" />
            <mxPoint x="9.5" y="5.920000000000016" as="targetPoint" />
          </mxGeometry>
        </mxCell>
        <mxCell id="VpwlSY-QDBKptcCKA4tu-16" value="" style="endArrow=none;html=1;rounded=0;entryX=0.492;entryY=0.175;entryDx=0;entryDy=0;entryPerimeter=0;exitX=0.492;exitY=0.75;exitDx=0;exitDy=0;exitPerimeter=0;" edge="1" parent="VpwlSY-QDBKptcCKA4tu-17" source="VpwlSY-QDBKptcCKA4tu-14" target="VpwlSY-QDBKptcCKA4tu-14">
          <mxGeometry width="50" height="50" relative="1" as="geometry">
            <mxPoint x="-30" y="41" as="sourcePoint" />
            <mxPoint x="20" y="-9" as="targetPoint" />
          </mxGeometry>
        </mxCell>
        <mxCell id="VpwlSY-QDBKptcCKA4tu-24" value="hardocded lista sto backend , pou tha kanei populate to drop down me auta ta onomata:&lt;br&gt;&lt;br&gt;&#39;[ &quot;dog parks&quot;, &quot;dog walks&quot;, &quot;ppoi&quot; ]&#39;" style="text;html=1;align=center;verticalAlign=middle;whiteSpace=wrap;rounded=0;fillColor=#f5f5f5;fontColor=#333333;strokeColor=#666666;" vertex="1" parent="1">
          <mxGeometry x="28" y="90" width="128" height="133" as="geometry" />
        </mxCell>
        <mxCell id="VpwlSY-QDBKptcCKA4tu-25" value="PAGE 1" style="text;html=1;align=center;verticalAlign=middle;whiteSpace=wrap;rounded=0;" vertex="1" parent="1">
          <mxGeometry x="23" y="6" width="60" height="30" as="geometry" />
        </mxCell>
        <mxCell id="VpwlSY-QDBKptcCKA4tu-26" value="DROP DOWN" style="swimlane;fontStyle=0;childLayout=stackLayout;horizontal=1;startSize=30;horizontalStack=0;resizeParent=1;resizeParentMax=0;resizeLast=0;collapsible=1;marginBottom=0;whiteSpace=wrap;html=1;" vertex="1" parent="1">
          <mxGeometry x="227" y="100" width="140" height="120" as="geometry">
            <mxRectangle x="227" y="100" width="111" height="30" as="alternateBounds" />
          </mxGeometry>
        </mxCell>
        <mxCell id="VpwlSY-QDBKptcCKA4tu-27" value="dog parks" style="text;strokeColor=none;fillColor=none;align=left;verticalAlign=middle;spacingLeft=4;spacingRight=4;overflow=hidden;points=[[0,0.5],[1,0.5]];portConstraint=eastwest;rotatable=0;whiteSpace=wrap;html=1;" vertex="1" parent="VpwlSY-QDBKptcCKA4tu-26">
          <mxGeometry y="30" width="140" height="30" as="geometry" />
        </mxCell>
        <mxCell id="VpwlSY-QDBKptcCKA4tu-28" value="dog walks" style="text;strokeColor=#82b366;fillColor=#d5e8d4;align=left;verticalAlign=middle;spacingLeft=4;spacingRight=4;overflow=hidden;points=[[0,0.5],[1,0.5]];portConstraint=eastwest;rotatable=0;whiteSpace=wrap;html=1;" vertex="1" parent="VpwlSY-QDBKptcCKA4tu-26">
          <mxGeometry y="60" width="140" height="30" as="geometry" />
        </mxCell>
        <mxCell id="VpwlSY-QDBKptcCKA4tu-29" value="ppoi" style="text;strokeColor=none;fillColor=none;align=left;verticalAlign=middle;spacingLeft=4;spacingRight=4;overflow=hidden;points=[[0,0.5],[1,0.5]];portConstraint=eastwest;rotatable=0;whiteSpace=wrap;html=1;" vertex="1" parent="VpwlSY-QDBKptcCKA4tu-26">
          <mxGeometry y="90" width="140" height="30" as="geometry" />
        </mxCell>
        <mxCell id="VpwlSY-QDBKptcCKA4tu-30" value="Athens generic" style="text;html=1;align=center;verticalAlign=middle;whiteSpace=wrap;rounded=0;" vertex="1" parent="1">
          <mxGeometry x="566" y="223" width="67" height="53" as="geometry" />
        </mxCell>
        <mxCell id="VpwlSY-QDBKptcCKA4tu-31" style="edgeStyle=orthogonalEdgeStyle;rounded=0;orthogonalLoop=1;jettySize=auto;html=1;entryX=-0.036;entryY=0.155;entryDx=0;entryDy=0;entryPerimeter=0;" edge="1" parent="1" source="VpwlSY-QDBKptcCKA4tu-24" target="VpwlSY-QDBKptcCKA4tu-26">
          <mxGeometry relative="1" as="geometry" />
        </mxCell>
        <mxCell id="VpwlSY-QDBKptcCKA4tu-58" style="edgeStyle=orthogonalEdgeStyle;rounded=0;orthogonalLoop=1;jettySize=auto;html=1;" edge="1" parent="1" source="VpwlSY-QDBKptcCKA4tu-32" target="VpwlSY-QDBKptcCKA4tu-34">
          <mxGeometry relative="1" as="geometry" />
        </mxCell>
        <mxCell id="VpwlSY-QDBKptcCKA4tu-59" value="edw vazeis tis geometries" style="edgeLabel;html=1;align=center;verticalAlign=middle;resizable=0;points=[];" vertex="1" connectable="0" parent="VpwlSY-QDBKptcCKA4tu-58">
          <mxGeometry x="-0.076" y="-2" relative="1" as="geometry">
            <mxPoint as="offset" />
          </mxGeometry>
        </mxCell>
        <mxCell id="VpwlSY-QDBKptcCKA4tu-60" style="edgeStyle=orthogonalEdgeStyle;rounded=0;orthogonalLoop=1;jettySize=auto;html=1;exitX=1;exitY=0.75;exitDx=0;exitDy=0;entryX=0.5;entryY=0;entryDx=0;entryDy=0;" edge="1" parent="1" source="VpwlSY-QDBKptcCKA4tu-32" target="VpwlSY-QDBKptcCKA4tu-48">
          <mxGeometry relative="1" as="geometry" />
        </mxCell>
        <mxCell id="VpwlSY-QDBKptcCKA4tu-34" value="" style="rounded=0;whiteSpace=wrap;html=1;" vertex="1" parent="1">
          <mxGeometry x="391" y="639" width="352" height="300" as="geometry" />
        </mxCell>
        <mxCell id="VpwlSY-QDBKptcCKA4tu-32" value="Otan o user epileksei, kane to antistoixo GET ALL.&amp;nbsp;" style="text;html=1;align=center;verticalAlign=middle;whiteSpace=wrap;rounded=0;fillColor=#d5e8d4;strokeColor=#82b366;" vertex="1" parent="1">
          <mxGeometry x="28" y="467" width="139" height="75" as="geometry" />
        </mxCell>
        <mxCell id="VpwlSY-QDBKptcCKA4tu-35" value="web" style="text;html=1;align=center;verticalAlign=middle;whiteSpace=wrap;rounded=0;" vertex="1" parent="1">
          <mxGeometry x="550" y="560" width="60" height="30" as="geometry" />
        </mxCell>
        <mxCell id="VpwlSY-QDBKptcCKA4tu-36" value="map" style="text;html=1;align=center;verticalAlign=middle;whiteSpace=wrap;rounded=0;" vertex="1" parent="1">
          <mxGeometry x="537" y="639" width="60" height="30" as="geometry" />
        </mxCell>
        <mxCell id="VpwlSY-QDBKptcCKA4tu-37" value="" style="group" vertex="1" connectable="0" parent="1">
          <mxGeometry x="725" y="897" width="12" height="32" as="geometry" />
        </mxCell>
        <mxCell id="VpwlSY-QDBKptcCKA4tu-38" value="" style="rounded=0;whiteSpace=wrap;html=1;" vertex="1" parent="VpwlSY-QDBKptcCKA4tu-37">
          <mxGeometry y="20" width="12" height="12" as="geometry" />
        </mxCell>
        <mxCell id="VpwlSY-QDBKptcCKA4tu-39" value="" style="endArrow=none;html=1;rounded=0;" edge="1" parent="VpwlSY-QDBKptcCKA4tu-37">
          <mxGeometry width="50" height="50" relative="1" as="geometry">
            <mxPoint x="2" y="26" as="sourcePoint" />
            <mxPoint x="9" y="26" as="targetPoint" />
          </mxGeometry>
        </mxCell>
        <mxCell id="VpwlSY-QDBKptcCKA4tu-40" value="" style="rounded=0;whiteSpace=wrap;html=1;" vertex="1" parent="VpwlSY-QDBKptcCKA4tu-37">
          <mxGeometry width="12" height="12" as="geometry" />
        </mxCell>
        <mxCell id="VpwlSY-QDBKptcCKA4tu-41" value="" style="endArrow=none;html=1;rounded=0;" edge="1" parent="VpwlSY-QDBKptcCKA4tu-37">
          <mxGeometry width="50" height="50" relative="1" as="geometry">
            <mxPoint x="2.5" y="5.920000000000016" as="sourcePoint" />
            <mxPoint x="9.5" y="5.920000000000016" as="targetPoint" />
          </mxGeometry>
        </mxCell>
        <mxCell id="VpwlSY-QDBKptcCKA4tu-42" value="" style="endArrow=none;html=1;rounded=0;entryX=0.492;entryY=0.175;entryDx=0;entryDy=0;entryPerimeter=0;exitX=0.492;exitY=0.75;exitDx=0;exitDy=0;exitPerimeter=0;" edge="1" parent="VpwlSY-QDBKptcCKA4tu-37" source="VpwlSY-QDBKptcCKA4tu-40" target="VpwlSY-QDBKptcCKA4tu-40">
          <mxGeometry width="50" height="50" relative="1" as="geometry">
            <mxPoint x="-30" y="41" as="sourcePoint" />
            <mxPoint x="20" y="-9" as="targetPoint" />
          </mxGeometry>
        </mxCell>
        <mxCell id="VpwlSY-QDBKptcCKA4tu-43" value="PAGE 2" style="text;html=1;align=center;verticalAlign=middle;whiteSpace=wrap;rounded=0;" vertex="1" parent="1">
          <mxGeometry x="23" y="585" width="60" height="30" as="geometry" />
        </mxCell>
        <mxCell id="VpwlSY-QDBKptcCKA4tu-44" value="" style="endArrow=none;dashed=1;html=1;rounded=0;" edge="1" parent="1" target="VpwlSY-QDBKptcCKA4tu-34">
          <mxGeometry width="50" height="50" relative="1" as="geometry">
            <mxPoint x="459" y="842" as="sourcePoint" />
            <mxPoint x="501" y="785" as="targetPoint" />
          </mxGeometry>
        </mxCell>
        <mxCell id="VpwlSY-QDBKptcCKA4tu-45" value="" style="endArrow=none;dashed=1;html=1;rounded=0;fillColor=#e51400;strokeColor=#B20000;" edge="1" parent="1">
          <mxGeometry width="50" height="50" relative="1" as="geometry">
            <mxPoint x="574.5" y="909" as="sourcePoint" />
            <mxPoint x="624.5" y="859" as="targetPoint" />
          </mxGeometry>
        </mxCell>
        <mxCell id="VpwlSY-QDBKptcCKA4tu-46" value="" style="endArrow=none;dashed=1;html=1;rounded=0;" edge="1" parent="1">
          <mxGeometry width="50" height="50" relative="1" as="geometry">
            <mxPoint x="574.5" y="743" as="sourcePoint" />
            <mxPoint x="624.5" y="693" as="targetPoint" />
          </mxGeometry>
        </mxCell>
        <mxCell id="VpwlSY-QDBKptcCKA4tu-47" value="" style="endArrow=none;dashed=1;html=1;rounded=0;" edge="1" parent="1">
          <mxGeometry width="50" height="50" relative="1" as="geometry">
            <mxPoint x="529" y="741" as="sourcePoint" />
            <mxPoint x="479" y="791" as="targetPoint" />
          </mxGeometry>
        </mxCell>
        <mxCell id="VpwlSY-QDBKptcCKA4tu-48" value="dog walks&lt;div&gt;&lt;br&gt;&lt;/div&gt;&lt;div&gt;1. ------------&lt;/div&gt;&lt;div&gt;2. ------------&lt;/div&gt;&lt;div&gt;3.-------------&lt;/div&gt;&lt;div&gt;.&lt;/div&gt;&lt;div&gt;.&lt;/div&gt;&lt;div&gt;.&lt;/div&gt;&lt;div&gt;.&lt;/div&gt;&lt;div&gt;.&lt;/div&gt;&lt;div&gt;.&lt;/div&gt;&lt;div&gt;.&lt;/div&gt;&lt;div&gt;.&lt;/div&gt;&lt;div&gt;.&lt;/div&gt;" style="rounded=0;whiteSpace=wrap;html=1;" vertex="1" parent="1">
          <mxGeometry x="207" y="639" width="120" height="251" as="geometry" />
        </mxCell>
        <mxCell id="VpwlSY-QDBKptcCKA4tu-49" value="&lt;font color=&quot;#000000&quot;&gt;GET by ID on click or show in the list&lt;/font&gt;" style="shape=callout;whiteSpace=wrap;html=1;perimeter=calloutPerimeter;fillColor=none;fontColor=#ffffff;strokeColor=#B20000;" vertex="1" parent="1">
          <mxGeometry x="591" y="766" width="105" height="89" as="geometry" />
        </mxCell>
        <mxCell id="VpwlSY-QDBKptcCKA4tu-50" value="ADD NEW" style="rounded=0;whiteSpace=wrap;html=1;fillColor=#ffe6cc;strokeColor=#d79b00;" vertex="1" parent="1">
          <mxGeometry x="233.5" y="910" width="67" height="29" as="geometry" />
        </mxCell>
        <mxCell id="VpwlSY-QDBKptcCKA4tu-52" style="edgeStyle=orthogonalEdgeStyle;rounded=0;orthogonalLoop=1;jettySize=auto;html=1;" edge="1" parent="1" source="VpwlSY-QDBKptcCKA4tu-51" target="VpwlSY-QDBKptcCKA4tu-50">
          <mxGeometry relative="1" as="geometry" />
        </mxCell>
        <mxCell id="VpwlSY-QDBKptcCKA4tu-51" value="POST" style="text;html=1;align=center;verticalAlign=middle;whiteSpace=wrap;rounded=0;" vertex="1" parent="1">
          <mxGeometry x="54" y="913" width="60" height="30" as="geometry" />
        </mxCell>
        <mxCell id="VpwlSY-QDBKptcCKA4tu-61" value="" style="endArrow=classic;html=1;rounded=0;exitX=0.867;exitY=0.449;exitDx=0;exitDy=0;exitPerimeter=0;edgeStyle=orthogonalEdgeStyle;curved=1;" edge="1" parent="1" source="VpwlSY-QDBKptcCKA4tu-49" target="VpwlSY-QDBKptcCKA4tu-48">
          <mxGeometry width="50" height="50" relative="1" as="geometry">
            <mxPoint x="451" y="833" as="sourcePoint" />
            <mxPoint x="501" y="783" as="targetPoint" />
            <Array as="points">
              <mxPoint x="682" y="837" />
              <mxPoint x="431" y="837" />
              <mxPoint x="431" y="764" />
            </Array>
          </mxGeometry>
        </mxCell>
        <mxCell id="VpwlSY-QDBKptcCKA4tu-66" value="" style="group" vertex="1" connectable="0" parent="1">
          <mxGeometry x="397" y="651" width="48" height="48" as="geometry" />
        </mxCell>
        <mxCell id="VpwlSY-QDBKptcCKA4tu-64" value="" style="ellipse;whiteSpace=wrap;html=1;aspect=fixed;" vertex="1" parent="VpwlSY-QDBKptcCKA4tu-66">
          <mxGeometry width="48" height="48" as="geometry" />
        </mxCell>
        <mxCell id="VpwlSY-QDBKptcCKA4tu-65" value="" style="shape=image;html=1;verticalAlign=top;verticalLabelPosition=bottom;labelBackgroundColor=#ffffff;imageAspect=0;aspect=fixed;image=https://cdn4.iconfinder.com/data/icons/48-bubbles/48/15.Pencil-128.png" vertex="1" parent="VpwlSY-QDBKptcCKA4tu-66">
          <mxGeometry x="8" y="8" width="32" height="32" as="geometry" />
        </mxCell>
        <mxCell id="VpwlSY-QDBKptcCKA4tu-71" value="" style="rounded=0;whiteSpace=wrap;html=1;" vertex="1" parent="1">
          <mxGeometry x="391" y="1092" width="352" height="300" as="geometry" />
        </mxCell>
        <mxCell id="VpwlSY-QDBKptcCKA4tu-67" value="" style="group" vertex="1" connectable="0" parent="1">
          <mxGeometry x="425" y="107" width="48" height="48" as="geometry" />
        </mxCell>
        <mxCell id="VpwlSY-QDBKptcCKA4tu-68" value="" style="ellipse;whiteSpace=wrap;html=1;aspect=fixed;" vertex="1" parent="VpwlSY-QDBKptcCKA4tu-67">
          <mxGeometry width="48" height="48" as="geometry" />
        </mxCell>
        <mxCell id="VpwlSY-QDBKptcCKA4tu-69" value="" style="shape=image;html=1;verticalAlign=top;verticalLabelPosition=bottom;labelBackgroundColor=#ffffff;imageAspect=0;aspect=fixed;image=https://cdn4.iconfinder.com/data/icons/48-bubbles/48/15.Pencil-128.png" vertex="1" parent="VpwlSY-QDBKptcCKA4tu-67">
          <mxGeometry x="8" y="8" width="32" height="32" as="geometry" />
        </mxCell>
        <mxCell id="VpwlSY-QDBKptcCKA4tu-72" value="web" style="text;html=1;align=center;verticalAlign=middle;whiteSpace=wrap;rounded=0;" vertex="1" parent="1">
          <mxGeometry x="550" y="1013" width="60" height="30" as="geometry" />
        </mxCell>
        <mxCell id="VpwlSY-QDBKptcCKA4tu-73" value="" style="group" vertex="1" connectable="0" parent="1">
          <mxGeometry x="725" y="1350" width="12" height="32" as="geometry" />
        </mxCell>
        <mxCell id="VpwlSY-QDBKptcCKA4tu-74" value="" style="rounded=0;whiteSpace=wrap;html=1;" vertex="1" parent="VpwlSY-QDBKptcCKA4tu-73">
          <mxGeometry y="20" width="12" height="12" as="geometry" />
        </mxCell>
        <mxCell id="VpwlSY-QDBKptcCKA4tu-75" value="" style="endArrow=none;html=1;rounded=0;" edge="1" parent="VpwlSY-QDBKptcCKA4tu-73">
          <mxGeometry width="50" height="50" relative="1" as="geometry">
            <mxPoint x="2" y="26" as="sourcePoint" />
            <mxPoint x="9" y="26" as="targetPoint" />
          </mxGeometry>
        </mxCell>
        <mxCell id="VpwlSY-QDBKptcCKA4tu-76" value="" style="rounded=0;whiteSpace=wrap;html=1;" vertex="1" parent="VpwlSY-QDBKptcCKA4tu-73">
          <mxGeometry width="12" height="12" as="geometry" />
        </mxCell>
        <mxCell id="VpwlSY-QDBKptcCKA4tu-77" value="" style="endArrow=none;html=1;rounded=0;" edge="1" parent="VpwlSY-QDBKptcCKA4tu-73">
          <mxGeometry width="50" height="50" relative="1" as="geometry">
            <mxPoint x="2.5" y="5.920000000000016" as="sourcePoint" />
            <mxPoint x="9.5" y="5.920000000000016" as="targetPoint" />
          </mxGeometry>
        </mxCell>
        <mxCell id="VpwlSY-QDBKptcCKA4tu-78" value="" style="endArrow=none;html=1;rounded=0;entryX=0.492;entryY=0.175;entryDx=0;entryDy=0;entryPerimeter=0;exitX=0.492;exitY=0.75;exitDx=0;exitDy=0;exitPerimeter=0;" edge="1" parent="VpwlSY-QDBKptcCKA4tu-73" source="VpwlSY-QDBKptcCKA4tu-76" target="VpwlSY-QDBKptcCKA4tu-76">
          <mxGeometry width="50" height="50" relative="1" as="geometry">
            <mxPoint x="-30" y="41" as="sourcePoint" />
            <mxPoint x="20" y="-9" as="targetPoint" />
          </mxGeometry>
        </mxCell>
        <mxCell id="VpwlSY-QDBKptcCKA4tu-79" value="" style="endArrow=none;dashed=1;html=1;rounded=0;" edge="1" parent="1" target="VpwlSY-QDBKptcCKA4tu-71">
          <mxGeometry width="50" height="50" relative="1" as="geometry">
            <mxPoint x="459" y="1295" as="sourcePoint" />
            <mxPoint x="501" y="1238" as="targetPoint" />
          </mxGeometry>
        </mxCell>
        <mxCell id="VpwlSY-QDBKptcCKA4tu-80" value="" style="endArrow=none;dashed=1;html=1;rounded=0;" edge="1" parent="1">
          <mxGeometry width="50" height="50" relative="1" as="geometry">
            <mxPoint x="574.5" y="1196" as="sourcePoint" />
            <mxPoint x="624.5" y="1146" as="targetPoint" />
          </mxGeometry>
        </mxCell>
        <mxCell id="VpwlSY-QDBKptcCKA4tu-81" value="" style="endArrow=none;dashed=1;html=1;rounded=0;" edge="1" parent="1">
          <mxGeometry width="50" height="50" relative="1" as="geometry">
            <mxPoint x="529" y="1194" as="sourcePoint" />
            <mxPoint x="479" y="1244" as="targetPoint" />
          </mxGeometry>
        </mxCell>
        <mxCell id="VpwlSY-QDBKptcCKA4tu-82" value="" style="group;fillColor=#ffe6cc;strokeColor=#d79b00;" vertex="1" connectable="0" parent="1">
          <mxGeometry x="397" y="1104" width="48" height="48" as="geometry" />
        </mxCell>
        <mxCell id="VpwlSY-QDBKptcCKA4tu-83" value="" style="ellipse;whiteSpace=wrap;html=1;aspect=fixed;" vertex="1" parent="VpwlSY-QDBKptcCKA4tu-82">
          <mxGeometry width="48" height="48" as="geometry" />
        </mxCell>
        <mxCell id="VpwlSY-QDBKptcCKA4tu-84" value="" style="shape=image;html=1;verticalAlign=top;verticalLabelPosition=bottom;labelBackgroundColor=#ffffff;imageAspect=0;aspect=fixed;image=https://cdn4.iconfinder.com/data/icons/48-bubbles/48/15.Pencil-128.png;imageBackground=#FFCE9F;" vertex="1" parent="VpwlSY-QDBKptcCKA4tu-82">
          <mxGeometry x="8" y="8" width="32" height="32" as="geometry" />
        </mxCell>
        <mxCell id="VpwlSY-QDBKptcCKA4tu-87" value="" style="swimlane;startSize=0;fillColor=#FFCE9F;" vertex="1" parent="1">
          <mxGeometry x="197" y="1461" width="302" height="200" as="geometry">
            <mxRectangle x="204" y="1184" width="50" height="44" as="alternateBounds" />
          </mxGeometry>
        </mxCell>
        <mxCell id="VpwlSY-QDBKptcCKA4tu-93" value="pedia tou kathe antikeimenou pou sxediasthke sto page 2" style="text;html=1;align=center;verticalAlign=middle;resizable=0;points=[];autosize=1;strokeColor=none;fillColor=none;" vertex="1" parent="VpwlSY-QDBKptcCKA4tu-87">
          <mxGeometry x="-6" y="57" width="324" height="26" as="geometry" />
        </mxCell>
        <mxCell id="VpwlSY-QDBKptcCKA4tu-89" style="edgeStyle=orthogonalEdgeStyle;rounded=0;orthogonalLoop=1;jettySize=auto;html=1;exitX=0.5;exitY=1;exitDx=0;exitDy=0;" edge="1" parent="1" source="VpwlSY-QDBKptcCKA4tu-83" target="VpwlSY-QDBKptcCKA4tu-87">
          <mxGeometry relative="1" as="geometry">
            <mxPoint x="378.80000000000024" y="1152.0000000000002" as="sourcePoint" />
            <mxPoint x="273.00000000000006" y="1293.1999999999998" as="targetPoint" />
          </mxGeometry>
        </mxCell>
        <mxCell id="VpwlSY-QDBKptcCKA4tu-90" value="otan patane to koumpi" style="edgeLabel;html=1;align=center;verticalAlign=middle;resizable=0;points=[];" vertex="1" connectable="0" parent="VpwlSY-QDBKptcCKA4tu-89">
          <mxGeometry x="0.255" y="3" relative="1" as="geometry">
            <mxPoint as="offset" />
          </mxGeometry>
        </mxCell>
        <mxCell id="VpwlSY-QDBKptcCKA4tu-92" value="POP UP" style="text;html=1;align=center;verticalAlign=middle;resizable=0;points=[];autosize=1;strokeColor=none;fillColor=none;" vertex="1" parent="1">
          <mxGeometry x="222" y="1462" width="63" height="26" as="geometry" />
        </mxCell>
      </root>
    </mxGraphModel>
  </diagram>
</mxfile>
